<?xml version="1.0"?> <svg xmlns="http://www.w3.org/2000/svg" xmlns:xlink="http://www.w3.org/1999/xlink" version="1.1" id="Layer_1" x="0px" y="0px" viewBox="0 0 883.74 161.15" style="enable-background:new 0 0 883.74 161.15;" xml:space="preserve">  <g> <g> <path class="st0" d="M18.6,81.07c0.63,0.92,1.49,1.37,2.57,1.37h0.71v1.34h-9.73v-1.34c1.36,0,2.41-0.4,3.14-1.2 c0.73-0.8,1.09-2.09,1.09-3.88V33.8c0-1.6-0.33-2.86-0.99-3.77c-0.66-0.92-1.53-1.37-2.61-1.37h-0.63v-1.27h8.11l38.99,50.12V33.8 c0-1.6-0.32-2.86-0.95-3.77c-0.63-0.92-1.49-1.37-2.57-1.37h-0.63v-1.27h9.66v1.27c-1.36,0-2.4,0.41-3.1,1.23 c-0.71,0.82-1.06,2.13-1.06,3.91v50.76h-1.41l-1.9-2.54L17.65,31.19v46.17C17.65,78.92,17.97,80.15,18.6,81.07z"></path> <path class="st0" d="M129.81,55.37c0,3.85-0.6,7.52-1.8,11c-1.2,3.48-2.97,6.52-5.32,9.13c-2.35,2.61-5.28,4.68-8.78,6.2 c-3.5,1.53-7.55,2.29-12.16,2.29c-4.65,0-8.73-0.76-12.23-2.29c-3.5-1.53-6.43-3.59-8.78-6.2c-2.35-2.61-4.12-5.65-5.32-9.13 c-1.2-3.48-1.8-7.14-1.8-11s0.6-7.51,1.8-10.96c1.2-3.45,2.97-6.49,5.32-9.09c2.35-2.61,5.28-4.68,8.78-6.2 c3.5-1.53,7.58-2.29,12.23-2.29c4.61,0,8.66,0.77,12.16,2.29c3.5,1.53,6.43,3.6,8.78,6.2c2.35,2.61,4.12,5.64,5.32,9.09 C129.22,47.86,129.81,51.52,129.81,55.37z M101.76,82.94c3.85,0,7.23-0.74,10.12-2.22c2.89-1.48,5.31-3.48,7.26-5.99 c1.95-2.51,3.42-5.44,4.41-8.78c0.99-3.34,1.48-6.86,1.48-10.57s-0.49-7.23-1.48-10.54c-0.99-3.31-2.46-6.23-4.41-8.74 c-1.95-2.51-4.37-4.51-7.26-5.99c-2.89-1.48-6.26-2.22-10.12-2.22c-3.85,0-7.24,0.74-10.15,2.22c-2.91,1.48-5.36,3.48-7.33,5.99 c-1.97,2.52-3.45,5.43-4.44,8.74c-0.99,3.32-1.48,6.83-1.48,10.54s0.49,7.24,1.48,10.57c0.99,3.34,2.47,6.26,4.44,8.78 c1.97,2.51,4.42,4.51,7.33,5.99C94.52,82.2,97.9,82.94,101.76,82.94z"></path> <path class="st0" d="M189.17,83.01v0.85h-2.47c-0.85,0-1.61-0.07-2.29-0.21c-0.68-0.14-1.37-0.42-2.08-0.85s-1.48-1.03-2.33-1.83 c-0.85-0.8-1.87-1.87-3.07-3.21c-1.2-1.34-2.63-2.99-4.3-4.94c-1.67-1.95-3.68-4.29-6.03-7.01c-0.33,0.05-0.67,0.07-1.02,0.07 c-0.35,0-0.72,0-1.09,0h-13.75v11.49c0,1.51,0.33,2.73,0.99,3.67c0.66,0.94,1.53,1.41,2.61,1.41h0.71v1.34h-13.04v-1.34h0.63 c1.13,0,2.02-0.47,2.68-1.41c0.66-0.94,0.99-2.16,0.99-3.67V33.8c0-1.55-0.33-2.8-0.99-3.74c-0.66-0.94-1.55-1.41-2.68-1.41h-0.63 v-1.27h25.87c2.73,0,5.22,0.47,7.47,1.41c2.26,0.94,4.18,2.26,5.78,3.95c1.6,1.69,2.84,3.73,3.74,6.1 c0.89,2.37,1.34,4.99,1.34,7.86c0,2.35-0.35,4.52-1.06,6.52c-0.71,2-1.72,3.78-3.03,5.36c-1.32,1.58-2.89,2.92-4.72,4.02 c-1.83,1.11-3.9,1.94-6.2,2.5c3.57,4.28,6.43,7.61,8.56,10.01c2.14,2.4,3.81,4.18,5.01,5.36c1.2,1.18,2.08,1.89,2.64,2.15 c0.56,0.26,1.08,0.39,1.55,0.39H189.17z M164.5,64.82c2.54,0,4.85-0.44,6.94-1.3c2.09-0.87,3.89-2.1,5.39-3.7 c1.5-1.6,2.67-3.51,3.49-5.75c0.82-2.23,1.23-4.69,1.23-7.37c0-2.72-0.33-5.2-0.99-7.44c-0.66-2.23-1.59-4.15-2.78-5.75 c-1.2-1.6-2.64-2.84-4.34-3.74c-1.69-0.89-3.55-1.34-5.57-1.34h-17.13v36.38H164.5z"></path> <path class="st0" d="M248.35,29.18c0.12,0.87,0.25,1.85,0.39,2.93c0.14,1.08,0.27,2.1,0.39,3.07c0.12,0.96,0.18,1.52,0.18,1.66 h-1.34l-1.06-2.05c-1.08-1.93-2.54-3.46-4.37-4.62c-1.83-1.15-3.69-1.73-5.57-1.73h-11.63v48.93c0,1.55,0.32,2.79,0.95,3.7 c0.63,0.92,1.49,1.37,2.57,1.37h0.63v1.34h-12.76v-1.34c1.36,0,2.41-0.4,3.14-1.2c0.73-0.8,1.09-2.09,1.09-3.88V28.44h-11.63 c-1.88,0-3.74,0.58-5.57,1.73c-1.83,1.15-3.29,2.69-4.37,4.62l-1.06,2.05H197c0-0.19,0.06-0.75,0.18-1.69 c0.12-0.94,0.25-1.95,0.39-3.03c0.14-1.08,0.27-2.05,0.39-2.93c0.12-0.87,0.2-1.3,0.25-1.3l0.07-0.49h49.77l0.07,0.49 C248.16,27.88,248.24,28.31,248.35,29.18z"></path> <path class="st0" d="M273.77,83.78h-12.69v-1.34c1.36,0,2.4-0.41,3.1-1.23c0.71-0.82,1.06-2.13,1.06-3.91V33.8 c0-1.6-0.32-2.86-0.95-3.77c-0.63-0.92-1.49-1.37-2.57-1.37h-0.63v-1.34h12.69v1.34c-1.36,0-2.41,0.41-3.14,1.23 s-1.09,2.13-1.09,3.91v31.3c1.13-1.74,2.77-3.14,4.93-4.19c2.16-1.06,4.55-1.95,7.16-2.68c2.61-0.73,5.31-1.36,8.11-1.91 c2.8-0.54,5.42-1.17,7.86-1.9c2.44-0.73,4.56-1.61,6.35-2.64c1.79-1.03,3.01-2.42,3.67-4.16V33.8c0-1.6-0.32-2.86-0.95-3.77 c-0.64-0.92-1.49-1.37-2.57-1.37h-0.71v-1.34h12.69v1.34c-1.36,0-2.4,0.41-3.1,1.23c-0.71,0.82-1.06,2.13-1.06,3.91v43.5 c0,1.6,0.32,2.86,0.95,3.77c0.63,0.92,1.49,1.37,2.57,1.37h0.63v1.34h-12.69v-1.34c1.36,0,2.41-0.41,3.14-1.23 c0.73-0.82,1.09-2.13,1.09-3.91V49.94c-1.13,1.55-2.77,2.81-4.94,3.77c-2.16,0.96-4.55,1.78-7.15,2.43 c-2.61,0.66-5.31,1.27-8.11,1.83c-2.8,0.56-5.41,1.25-7.83,2.04c-2.42,0.8-4.54,1.79-6.35,2.96c-1.81,1.18-3.04,2.73-3.7,4.65 v9.66c0,1.6,0.32,2.86,0.95,3.77c0.63,0.92,1.49,1.37,2.57,1.37h0.71V83.78z"></path> <path class="st0" d="M370.77,81.11c-0.33,1.6-0.52,2.49-0.56,2.68H328.9v-1.34c1.36,0,2.41-0.4,3.14-1.2 c0.73-0.8,1.09-2.09,1.09-3.88V33.8c0-1.55-0.33-2.79-0.99-3.7c-0.66-0.92-1.53-1.37-2.61-1.37h-0.63v-1.34h40.82 c0,1.36,0.05,2.81,0.14,4.34c0.09,1.53,0.16,2.97,0.21,4.34h-1.13l-0.49-1.2c-0.94-1.97-2.42-3.54-4.44-4.69 c-2.02-1.15-4.23-1.73-6.63-1.73h-20.02V49.8h17.62c2.12,0,3.92-0.32,5.43-0.95c1.5-0.63,2.44-1.49,2.82-2.57l0.28-0.63h1.13 v10.01h-1.13l-0.28-0.7c-0.47-1.22-1.44-2.21-2.92-2.96c-1.48-0.75-3.26-1.13-5.32-1.13h-17.62v31.86h20.66 c2.4,0,4.69-0.57,6.87-1.73c2.18-1.15,3.91-2.71,5.18-4.69l0.85-1.13h1.06C371.5,77.53,371.1,79.51,370.77,81.11z"></path> <path class="st0" d="M433.16,83.01v0.85h-2.47c-0.85,0-1.61-0.07-2.29-0.21c-0.68-0.14-1.37-0.42-2.08-0.85s-1.48-1.03-2.33-1.83 c-0.85-0.8-1.87-1.87-3.07-3.21c-1.2-1.34-2.63-2.99-4.3-4.94c-1.67-1.95-3.68-4.29-6.03-7.01c-0.33,0.05-0.67,0.07-1.02,0.07 c-0.35,0-0.72,0-1.09,0h-13.75v11.49c0,1.51,0.33,2.73,0.99,3.67c0.66,0.94,1.53,1.41,2.61,1.41h0.71v1.34H386v-1.34h0.63 c1.13,0,2.02-0.47,2.68-1.41c0.66-0.94,0.99-2.16,0.99-3.67V33.8c0-1.55-0.33-2.8-0.99-3.74c-0.66-0.94-1.55-1.41-2.68-1.41H386 v-1.27h25.87c2.73,0,5.22,0.47,7.47,1.41c2.26,0.94,4.18,2.26,5.78,3.95c1.6,1.69,2.84,3.73,3.74,6.1 c0.89,2.37,1.34,4.99,1.34,7.86c0,2.35-0.35,4.52-1.06,6.52c-0.71,2-1.72,3.78-3.03,5.36c-1.32,1.58-2.89,2.92-4.72,4.02 c-1.83,1.11-3.9,1.94-6.2,2.5c3.57,4.28,6.43,7.61,8.56,10.01c2.14,2.4,3.81,4.18,5.01,5.36c1.2,1.18,2.08,1.89,2.64,2.15 c0.56,0.26,1.08,0.39,1.55,0.39H433.16z M408.49,64.82c2.54,0,4.85-0.44,6.94-1.3c2.09-0.87,3.89-2.1,5.39-3.7 c1.5-1.6,2.67-3.51,3.49-5.75c0.82-2.23,1.23-4.69,1.23-7.37c0-2.72-0.33-5.2-0.99-7.44c-0.66-2.23-1.59-4.15-2.78-5.75 c-1.2-1.6-2.64-2.84-4.34-3.74c-1.69-0.89-3.55-1.34-5.57-1.34h-17.13v36.38H408.49z"></path> <path class="st0" d="M453.64,81.07c0.64,0.92,1.49,1.37,2.58,1.37h0.7v1.34h-9.73v-1.34c1.36,0,2.41-0.4,3.14-1.2 c0.73-0.8,1.09-2.09,1.09-3.88V33.8c0-1.6-0.33-2.86-0.99-3.77c-0.66-0.92-1.53-1.37-2.61-1.37h-0.63v-1.27h8.11l38.98,50.12V33.8 c0-1.6-0.32-2.86-0.95-3.77c-0.63-0.92-1.49-1.37-2.57-1.37h-0.63v-1.27h9.66v1.27c-1.36,0-2.39,0.41-3.1,1.23 c-0.7,0.82-1.06,2.13-1.06,3.91v50.76h-1.41l-1.9-2.54l-39.62-50.83v46.17C452.69,78.92,453.01,80.15,453.64,81.07z"></path> <path class="st0" d="M556.47,29.92c-0.71,0.8-1.06,2.09-1.06,3.88v48.93h21.29c0.52,0,1.27-0.08,2.26-0.25 c0.98-0.16,2.04-0.54,3.17-1.13c1.13-0.59,2.25-1.43,3.35-2.54c1.1-1.1,2.03-2.6,2.78-4.48l0.71,0.14 c0.19,0.05,0.38,0.1,0.56,0.14c0.19,0.05,0.37,0.1,0.56,0.14c-0.33,1.41-0.61,2.72-0.85,3.95c-0.23,1.03-0.45,2.04-0.63,3.03 c-0.19,0.99-0.33,1.67-0.42,2.04h-41.31v-1.27c1.36,0,2.41-0.41,3.14-1.23c0.73-0.82,1.09-2.13,1.09-3.91V33.8 c0-1.55-0.32-2.79-0.95-3.7c-0.63-0.92-1.49-1.37-2.57-1.37h-0.71v-1.34h12.69v1.34C558.2,28.73,557.17,29.13,556.47,29.92z"></path> </g> <g> <path class="st0" d="M17.65,77.37V31.19l39.62,50.83l1.9,2.54h1.41V33.8c0-1.78,0.35-3.09,1.06-3.91c0.7-0.82,1.74-1.24,3.1-1.24 v-1.27h-9.66v1.27h0.64c1.08,0,1.94,0.46,2.57,1.38c0.64,0.92,0.95,2.18,0.95,3.77v43.71L20.26,27.39h-8.11v1.27h0.63 c1.08,0,1.95,0.46,2.61,1.38c0.66,0.92,0.99,2.18,0.99,3.77v43.57c0,1.79-0.37,3.08-1.1,3.88c-0.73,0.8-1.77,1.2-3.14,1.2v1.34 h9.73v-1.34h-0.71c-1.08,0-1.94-0.46-2.57-1.38C17.97,80.15,17.65,78.92,17.65,77.37z"></path> <path class="st0" d="M91.68,80.72c-2.91-1.48-5.36-3.48-7.33-5.99c-1.97-2.52-3.46-5.44-4.44-8.78 c-0.98-3.34-1.48-6.86-1.48-10.57c0-3.71,0.49-7.22,1.48-10.54c0.99-3.31,2.47-6.23,4.44-8.74c1.97-2.52,4.42-4.51,7.33-5.99 c2.91-1.48,6.3-2.22,10.15-2.22c3.85,0,7.23,0.74,10.12,2.22c2.89,1.48,5.31,3.48,7.26,5.99c1.95,2.51,3.42,5.43,4.41,8.74 c0.99,3.32,1.48,6.83,1.48,10.54c0,3.71-0.49,7.24-1.48,10.57c-0.99,3.34-2.45,6.26-4.41,8.78c-1.95,2.52-4.37,4.51-7.26,5.99 c-2.89,1.48-6.26,2.22-10.12,2.22C97.97,82.94,94.59,82.2,91.68,80.72z M128.09,44.41c-1.2-3.46-2.97-6.49-5.32-9.09 c-2.35-2.61-5.28-4.68-8.78-6.2c-3.5-1.53-7.55-2.29-12.16-2.29c-4.65,0-8.73,0.77-12.23,2.29c-3.5,1.53-6.43,3.59-8.78,6.2 c-2.35,2.61-4.12,5.64-5.32,9.09c-1.2,3.46-1.8,7.11-1.8,10.96s0.6,7.52,1.8,11c1.2,3.48,2.97,6.52,5.32,9.13 c2.35,2.61,5.28,4.68,8.78,6.2c3.5,1.53,7.58,2.29,12.23,2.29c4.61,0,8.66-0.76,12.16-2.29c3.5-1.53,6.43-3.59,8.78-6.2 c2.35-2.61,4.12-5.65,5.32-9.13c1.2-3.48,1.8-7.14,1.8-11S129.29,47.87,128.09,44.41z"></path> <path class="st0" d="M150.82,64.82V28.44h17.13c2.02,0,3.88,0.45,5.57,1.34c1.69,0.89,3.14,2.14,4.33,3.74 c1.2,1.6,2.12,3.51,2.78,5.75c0.66,2.23,0.99,4.71,0.99,7.44c0,2.68-0.41,5.14-1.23,7.37c-0.82,2.23-1.99,4.15-3.49,5.75 c-1.51,1.6-3.3,2.83-5.4,3.7c-2.09,0.87-4.41,1.3-6.94,1.3H150.82z M189.03,83.01c-0.47,0-0.99-0.13-1.55-0.39 c-0.56-0.26-1.45-0.98-2.65-2.15c-1.2-1.17-2.87-2.96-5-5.36s-4.99-5.73-8.57-10.01c2.3-0.56,4.37-1.4,6.2-2.5 s3.41-2.44,4.73-4.02c1.31-1.58,2.33-3.36,3.03-5.36c0.7-2,1.06-4.17,1.06-6.52c0-2.86-0.45-5.49-1.34-7.86 c-0.89-2.37-2.14-4.41-3.74-6.1c-1.6-1.69-3.53-3.01-5.78-3.95c-2.26-0.94-4.75-1.41-7.47-1.41h-25.87v1.27h0.64 c1.13,0,2.02,0.47,2.68,1.41c0.66,0.94,0.99,2.19,0.99,3.74v43.57c0,1.5-0.33,2.72-0.99,3.66c-0.66,0.94-1.55,1.41-2.68,1.41 h-0.64v1.34h13.04v-1.34h-0.7c-1.08,0-1.95-0.47-2.61-1.41c-0.66-0.94-0.99-2.16-0.99-3.66V65.88h13.75h1.09 c0.35,0,0.69-0.02,1.02-0.07c2.35,2.73,4.36,5.06,6.03,7.01c1.67,1.95,3.1,3.6,4.3,4.94c1.2,1.34,2.22,2.41,3.06,3.21 c0.85,0.8,1.62,1.41,2.33,1.83s1.4,0.7,2.08,0.85c0.68,0.14,1.45,0.21,2.29,0.21h2.47v-0.85H189.03z"></path> <path class="st0" d="M248.18,27.88l-0.07-0.49h-49.77l-0.07,0.49c-0.05,0-0.13,0.44-0.25,1.3c-0.12,0.87-0.25,1.85-0.39,2.93 c-0.14,1.08-0.27,2.09-0.39,3.03c-0.12,0.94-0.18,1.51-0.18,1.69h1.34l1.06-2.05c1.08-1.93,2.54-3.47,4.37-4.62 c1.83-1.15,3.69-1.73,5.57-1.73h11.63v48.93c0,1.79-0.36,3.08-1.09,3.88c-0.73,0.8-1.77,1.2-3.14,1.2v1.34h12.76v-1.34h-0.63 c-1.08,0-1.94-0.46-2.57-1.38c-0.63-0.92-0.95-2.15-0.95-3.7V28.44h11.63c1.88,0,3.74,0.58,5.57,1.73 c1.83,1.15,3.29,2.69,4.37,4.62l1.06,2.05h1.34c0-0.14-0.06-0.69-0.18-1.66c-0.12-0.96-0.25-1.99-0.39-3.06 c-0.14-1.08-0.27-2.06-0.39-2.93C248.31,28.31,248.23,27.88,248.18,27.88z"></path> <path class="st0" d="M273.84,82.44h-0.7c-1.08,0-1.94-0.46-2.57-1.38c-0.63-0.92-0.95-2.17-0.95-3.77v-9.66 c0.66-1.93,1.89-3.48,3.7-4.65c1.81-1.17,3.92-2.16,6.35-2.96c2.42-0.8,5.03-1.48,7.82-2.04c2.8-0.56,5.5-1.17,8.11-1.83 c2.61-0.66,4.99-1.47,7.16-2.43c2.16-0.96,3.81-2.22,4.93-3.77V77.3c0,1.79-0.36,3.09-1.09,3.91c-0.73,0.82-1.77,1.23-3.14,1.23 v1.34h12.69v-1.34h-0.63c-1.08,0-1.94-0.46-2.57-1.38c-0.64-0.92-0.95-2.17-0.95-3.77V33.8c0-1.78,0.35-3.09,1.06-3.91 c0.7-0.82,1.74-1.23,3.1-1.23v-1.34h-12.69v1.34h0.7c1.08,0,1.94,0.46,2.57,1.38c0.63,0.92,0.95,2.17,0.95,3.77v13.82 c-0.66,1.74-1.88,3.13-3.66,4.16c-1.79,1.03-3.9,1.92-6.35,2.65c-2.44,0.73-5.07,1.36-7.86,1.9c-2.8,0.54-5.5,1.17-8.11,1.9 c-2.61,0.73-4.99,1.62-7.16,2.68c-2.16,1.06-3.81,2.45-4.93,4.19V33.8c0-1.78,0.36-3.09,1.09-3.91c0.73-0.82,1.77-1.23,3.14-1.23 v-1.34h-12.69v1.34h0.63c1.08,0,1.94,0.46,2.57,1.38c0.63,0.92,0.95,2.17,0.95,3.77v43.5c0,1.79-0.35,3.09-1.06,3.91 c-0.7,0.82-1.74,1.23-3.1,1.23v1.34h12.69V82.44z"></path> <path class="st0" d="M372.04,75.18h-1.06l-0.85,1.13c-1.27,1.97-3,3.54-5.18,4.69c-2.19,1.15-4.47,1.73-6.87,1.73h-20.66V50.86 h17.63c2.07,0,3.84,0.38,5.32,1.13c1.48,0.75,2.45,1.74,2.92,2.96l0.28,0.71h1.13V45.64h-1.13l-0.28,0.63 c-0.37,1.08-1.31,1.94-2.82,2.57c-1.51,0.64-3.32,0.95-5.43,0.95h-17.63V28.44h20.02c2.4,0,4.61,0.58,6.63,1.73 c2.02,1.15,3.5,2.71,4.44,4.69l0.49,1.2h1.13c-0.05-1.36-0.12-2.81-0.21-4.33c-0.1-1.53-0.14-2.97-0.14-4.34h-40.82v1.34h0.63 c1.08,0,1.95,0.46,2.61,1.38c0.66,0.92,0.99,2.15,0.99,3.7v43.57c0,1.79-0.36,3.08-1.09,3.88c-0.73,0.8-1.77,1.2-3.14,1.2v1.34 h41.31c0.04-0.18,0.23-1.08,0.56-2.68C371.17,79.51,371.57,77.53,372.04,75.18z"></path> <path class="st0" d="M394.81,64.82V28.44h17.13c2.02,0,3.88,0.45,5.57,1.34c1.69,0.89,3.14,2.14,4.33,3.74 c1.2,1.6,2.12,3.51,2.78,5.75c0.66,2.23,0.99,4.71,0.99,7.44c0,2.68-0.41,5.14-1.23,7.37c-0.82,2.23-1.99,4.15-3.49,5.75 c-1.51,1.6-3.3,2.83-5.4,3.7c-2.09,0.87-4.41,1.3-6.94,1.3H394.81z M433.02,83.01c-0.47,0-0.99-0.13-1.55-0.39 c-0.56-0.26-1.45-0.98-2.64-2.15c-1.2-1.17-2.87-2.96-5-5.36c-2.14-2.4-4.99-5.73-8.57-10.01c2.3-0.56,4.37-1.4,6.2-2.5 s3.41-2.44,4.73-4.02c1.31-1.58,2.33-3.36,3.03-5.36c0.7-2,1.06-4.17,1.06-6.52c0-2.86-0.45-5.49-1.34-7.86 c-0.89-2.37-2.14-4.41-3.74-6.1c-1.6-1.69-3.53-3.01-5.78-3.95c-2.26-0.94-4.75-1.41-7.47-1.41h-25.87v1.27h0.64 c1.13,0,2.02,0.47,2.68,1.41c0.66,0.94,0.99,2.19,0.99,3.74v43.57c0,1.5-0.33,2.72-0.99,3.66c-0.66,0.94-1.55,1.41-2.68,1.41 h-0.64v1.34h13.04v-1.34h-0.7c-1.08,0-1.95-0.47-2.61-1.41c-0.66-0.94-0.99-2.16-0.99-3.66V65.88h13.75h1.09 c0.35,0,0.69-0.02,1.02-0.07c2.35,2.73,4.36,5.06,6.03,7.01c1.67,1.95,3.1,3.6,4.3,4.94c1.2,1.34,2.22,2.41,3.06,3.21 c0.85,0.8,1.62,1.41,2.33,1.83s1.4,0.7,2.08,0.85c0.68,0.14,1.45,0.21,2.29,0.21h2.47v-0.85H433.02z"></path> <path class="st0" d="M452.76,77.37V31.19l39.62,50.83l1.9,2.54h1.41V33.8c0-1.78,0.35-3.09,1.06-3.91 c0.71-0.82,1.74-1.24,3.1-1.24v-1.27h-9.66v1.27h0.63c1.08,0,1.94,0.46,2.57,1.38c0.64,0.92,0.95,2.18,0.95,3.77v43.71 l-38.99-50.12h-8.11v1.27h0.63c1.08,0,1.95,0.46,2.61,1.38c0.66,0.92,0.99,2.18,0.99,3.77v43.57c0,1.79-0.36,3.08-1.1,3.88 c-0.73,0.8-1.77,1.2-3.14,1.2v1.34h9.73v-1.34h-0.7c-1.08,0-1.94-0.46-2.58-1.38C453.08,80.15,452.76,78.92,452.76,77.37z"></path> <path class="st0" d="M559.71,28.72v-1.34h-12.69v1.34h0.71c1.08,0,1.94,0.46,2.57,1.38c0.63,0.92,0.95,2.15,0.95,3.7v43.57 c0,1.78-0.36,3.09-1.09,3.91c-0.73,0.82-1.77,1.23-3.14,1.23v1.27h41.31c0.09-0.37,0.23-1.06,0.42-2.05c0.19-0.99,0.4-2,0.63-3.03 c0.23-1.22,0.52-2.54,0.84-3.95c-0.19-0.04-0.37-0.09-0.56-0.14c-0.19-0.04-0.38-0.09-0.57-0.14l-0.71-0.14 c-0.75,1.88-1.68,3.37-2.78,4.48c-1.1,1.11-2.22,1.95-3.35,2.54c-1.13,0.59-2.19,0.96-3.17,1.13c-0.99,0.16-1.74,0.25-2.26,0.25 h-21.29V33.8c0-1.78,0.35-3.08,1.06-3.88C557.31,29.12,558.34,28.72,559.71,28.72z"></path> </g> <g> <path class="st0" d="M616.81,83.78h-12.69v-1.34c1.36,0,2.41-0.4,3.14-1.2c0.73-0.8,1.09-2.09,1.09-3.88V33.8 c0-1.55-0.32-2.79-0.95-3.7c-0.63-0.92-1.49-1.37-2.57-1.37h-0.7v-1.34h12.69v1.34c-1.36,0-2.39,0.4-3.1,1.2 c-0.7,0.8-1.06,2.09-1.06,3.88v43.57c0,1.55,0.32,2.79,0.95,3.7c0.63,0.92,1.49,1.37,2.57,1.37h0.63V83.78z"></path> <path class="st0" d="M658.83,84.14c-4.28,0-8.15-0.68-11.63-2.04c-3.48-1.36-6.46-3.3-8.96-5.82c-2.49-2.51-4.42-5.52-5.78-9.02 c-1.36-3.5-2.04-7.41-2.04-11.74c0-4.28,0.68-8.17,2.04-11.67c1.36-3.5,3.29-6.51,5.78-9.03c2.49-2.51,5.48-4.45,8.96-5.82 c3.48-1.36,7.35-2.04,11.63-2.04c1.97,0,3.97,0.12,5.99,0.35c2.02,0.23,3.99,0.57,5.92,1.02c1.93,0.45,3.75,0.99,5.46,1.62 c1.71,0.63,3.25,1.33,4.62,2.08l0.35,7.97h-1.41c-0.52-1.41-1.2-2.74-2.04-3.98c-0.85-1.25-1.83-2.37-2.96-3.38 c-1.13-1.01-2.37-1.86-3.74-2.54c-1.36-0.68-2.77-1.16-4.23-1.45c-2.63-0.42-5.29-0.63-7.97-0.63c-3.57,0-6.82,0.66-9.73,1.97 c-2.92,1.31-5.41,3.17-7.47,5.57s-3.67,5.29-4.79,8.67c-1.13,3.38-1.69,7.15-1.69,11.28s0.56,7.9,1.69,11.28 c1.13,3.38,2.72,6.29,4.79,8.71c2.07,2.42,4.56,4.29,7.47,5.6c2.91,1.31,6.16,1.97,9.73,1.97c3.2,0,6.44-0.31,9.73-0.92 c3.29-0.61,6.23-1.46,8.81-2.54V58.76c0-1.6-0.32-2.86-0.95-3.77c-0.63-0.92-1.49-1.38-2.57-1.38h-0.7v-1.34h12.27v1.34 c-1.36,0-2.4,0.41-3.1,1.23c-0.71,0.82-1.06,2.13-1.06,3.91v20.3c-1.31,0.75-2.84,1.44-4.58,2.08c-1.74,0.64-3.59,1.18-5.53,1.62 c-1.95,0.45-3.98,0.79-6.1,1.02C662.92,84.02,660.85,84.14,658.83,84.14z"></path> <path class="st0" d="M709.66,83.78h-12.69v-1.34c1.36,0,2.4-0.41,3.1-1.23c0.71-0.82,1.06-2.13,1.06-3.91V33.8 c0-1.6-0.32-2.86-0.95-3.77c-0.63-0.92-1.49-1.37-2.57-1.37h-0.63v-1.34h12.69v1.34c-1.36,0-2.41,0.41-3.14,1.23 c-0.73,0.82-1.09,2.13-1.09,3.91v31.3c1.13-1.74,2.77-3.14,4.93-4.19c2.16-1.06,4.55-1.95,7.16-2.68 c2.61-0.73,5.31-1.36,8.11-1.91c2.79-0.54,5.42-1.17,7.86-1.9c2.44-0.73,4.56-1.61,6.34-2.64c1.79-1.03,3.01-2.42,3.67-4.16V33.8 c0-1.6-0.32-2.86-0.95-3.77c-0.63-0.92-1.49-1.37-2.57-1.37h-0.7v-1.34h12.69v1.34c-1.36,0-2.4,0.41-3.1,1.23 c-0.71,0.82-1.06,2.13-1.06,3.91v43.5c0,1.6,0.32,2.86,0.95,3.77c0.63,0.92,1.49,1.37,2.57,1.37h0.63v1.34h-12.69v-1.34 c1.36,0,2.41-0.41,3.14-1.23c0.73-0.82,1.09-2.13,1.09-3.91V49.94c-1.13,1.55-2.77,2.81-4.94,3.77c-2.16,0.96-4.55,1.78-7.16,2.43 c-2.61,0.66-5.31,1.27-8.11,1.83c-2.79,0.56-5.4,1.25-7.82,2.04c-2.42,0.8-4.54,1.79-6.34,2.96c-1.81,1.18-3.04,2.73-3.7,4.65 v9.66c0,1.6,0.32,2.86,0.95,3.77c0.63,0.92,1.49,1.37,2.57,1.37h0.71V83.78z"></path> <path class="st0" d="M814.94,29.18c0.12,0.87,0.25,1.85,0.39,2.93c0.14,1.08,0.27,2.1,0.39,3.07c0.12,0.96,0.18,1.52,0.18,1.66 h-1.34l-1.06-2.05c-1.08-1.93-2.54-3.46-4.37-4.62c-1.83-1.15-3.69-1.73-5.57-1.73h-11.63v48.93c0,1.55,0.32,2.79,0.95,3.7 c0.64,0.92,1.49,1.37,2.58,1.37h0.63v1.34h-12.76v-1.34c1.36,0,2.41-0.4,3.14-1.2c0.73-0.8,1.09-2.09,1.09-3.88V28.44h-11.63 c-1.88,0-3.74,0.58-5.57,1.73c-1.83,1.15-3.29,2.69-4.37,4.62l-1.06,2.05h-1.34c0-0.19,0.06-0.75,0.18-1.69 c0.12-0.94,0.25-1.95,0.39-3.03c0.14-1.08,0.27-2.05,0.39-2.93c0.12-0.87,0.2-1.3,0.24-1.3l0.07-0.49h49.77l0.07,0.49 C814.74,27.88,814.83,28.31,814.94,29.18z"></path> <path class="st0" d="M833.45,37.4c0,1.41,0.54,2.62,1.62,3.63c1.08,1.01,2.51,1.94,4.3,2.78c1.78,0.85,3.82,1.63,6.1,2.36 c2.28,0.73,4.62,1.52,7.01,2.36c2.4,0.85,4.74,1.8,7.02,2.86c2.28,1.06,4.31,2.31,6.1,3.77c1.79,1.46,3.22,3.16,4.3,5.11 c1.08,1.95,1.62,4.26,1.62,6.94c0,2.12-0.52,4.18-1.55,6.2c-1.04,2.02-2.45,3.83-4.23,5.43c-1.79,1.6-3.88,2.88-6.27,3.84 c-2.4,0.96-4.96,1.45-7.68,1.45c-2.4,0-4.74-0.1-7.01-0.28c-2.28-0.19-4.43-0.46-6.45-0.81c-2.02-0.35-3.86-0.79-5.5-1.3 c-1.64-0.52-3.05-1.1-4.23-1.76l-0.28-8.25h1.41l1.06,2.11c1.08,2.21,2.62,4.05,4.62,5.53c2,1.48,4.19,2.48,6.59,3 c1.64,0.23,3.27,0.41,4.86,0.53c1.6,0.12,3.24,0.18,4.93,0.18c2.26,0,4.41-0.4,6.45-1.2s3.84-1.87,5.39-3.21 c1.55-1.34,2.77-2.85,3.67-4.55c0.89-1.69,1.34-3.45,1.34-5.29c0-2.3-0.54-4.3-1.62-5.99c-1.08-1.69-2.53-3.18-4.34-4.48 c-1.81-1.29-3.85-2.43-6.13-3.42c-2.28-0.99-4.61-1.91-6.98-2.75c-2.37-0.85-4.7-1.69-6.98-2.54c-2.28-0.85-4.32-1.76-6.13-2.75 c-1.81-0.99-3.26-2.11-4.34-3.38c-1.08-1.27-1.62-2.75-1.62-4.44c0-2.26,0.51-4.16,1.52-5.71c1.01-1.55,2.35-2.79,4.02-3.74 c1.67-0.94,3.55-1.62,5.64-2.04c2.09-0.42,4.22-0.63,6.38-0.63c1.69,0,3.4,0.11,5.11,0.32c1.72,0.21,3.37,0.51,4.97,0.88 c1.6,0.38,3.09,0.82,4.48,1.34c1.38,0.52,2.6,1.06,3.63,1.62c-0.23,0.38-0.35,0.61-0.35,0.71l0.35-0.63l0.28,8.32h-1.41 c-0.38-0.66-0.72-1.4-1.02-2.22c-0.31-0.82-0.65-1.59-1.02-2.29c-0.42-0.89-1-1.75-1.73-2.57c-0.73-0.82-1.68-1.56-2.86-2.22 c-1.18-0.66-2.63-1.19-4.37-1.59c-1.74-0.4-3.8-0.6-6.2-0.6c-1.79,0-3.55,0.14-5.29,0.42c-1.74,0.28-3.29,0.78-4.65,1.48 c-1.36,0.71-2.46,1.67-3.28,2.89C833.86,34.04,833.45,35.56,833.45,37.4z"></path> </g> <g> <path class="st0" d="M616.81,82.44h-0.63c-1.08,0-1.94-0.46-2.57-1.38c-0.63-0.92-0.95-2.15-0.95-3.7V33.8 c0-1.78,0.35-3.08,1.06-3.88c0.71-0.8,1.74-1.2,3.1-1.2v-1.34h-12.69v1.34h0.7c1.08,0,1.94,0.46,2.57,1.38 c0.64,0.92,0.95,2.15,0.95,3.7v43.57c0,1.79-0.37,3.08-1.09,3.88c-0.73,0.8-1.78,1.2-3.14,1.2v1.34h12.69V82.44z"></path> <path class="st0" d="M665.1,83.78c2.11-0.23,4.14-0.58,6.1-1.02c1.95-0.45,3.79-0.99,5.53-1.62c1.74-0.64,3.27-1.33,4.58-2.08 v-20.3c0-1.78,0.35-3.09,1.06-3.91c0.7-0.82,1.74-1.23,3.1-1.23v-1.34h-12.27v1.34h0.71c1.08,0,1.94,0.46,2.57,1.37 c0.64,0.92,0.95,2.18,0.95,3.77v20.87c-2.59,1.08-5.52,1.93-8.81,2.54c-3.29,0.61-6.53,0.92-9.73,0.92 c-3.57,0-6.82-0.66-9.73-1.97c-2.92-1.31-5.41-3.18-7.47-5.6c-2.07-2.42-3.67-5.32-4.79-8.71c-1.13-3.38-1.69-7.14-1.69-11.28 c0-4.14,0.56-7.9,1.69-11.28c1.13-3.38,2.73-6.27,4.79-8.67s4.56-4.25,7.47-5.57c2.91-1.31,6.16-1.97,9.73-1.97 c2.68,0,5.33,0.21,7.97,0.63c1.46,0.28,2.87,0.77,4.23,1.45c1.36,0.68,2.61,1.53,3.74,2.54c1.13,1.01,2.11,2.14,2.96,3.38 c0.84,1.25,1.53,2.57,2.04,3.98h1.41l-0.35-7.97c-1.36-0.75-2.9-1.44-4.62-2.08c-1.72-0.63-3.53-1.17-5.46-1.62 c-1.93-0.45-3.9-0.79-5.92-1.02c-2.02-0.23-4.02-0.35-5.99-0.35c-4.28,0-8.15,0.68-11.63,2.04c-3.48,1.36-6.46,3.3-8.95,5.82 c-2.49,2.52-4.42,5.52-5.78,9.03c-1.36,3.5-2.04,7.39-2.04,11.67c0,4.32,0.68,8.24,2.04,11.74c1.36,3.5,3.29,6.51,5.78,9.03 c2.49,2.51,5.47,4.45,8.95,5.82c3.48,1.36,7.35,2.04,11.63,2.04C660.92,84.13,662.99,84.02,665.1,83.78z"></path> <path class="st0" d="M709.73,82.44h-0.71c-1.08,0-1.94-0.46-2.57-1.38s-0.95-2.17-0.95-3.77v-9.66c0.66-1.93,1.89-3.48,3.7-4.65 c1.81-1.17,3.92-2.16,6.34-2.96c2.42-0.8,5.03-1.48,7.82-2.04c2.8-0.56,5.5-1.17,8.11-1.83c2.61-0.66,4.99-1.47,7.16-2.43 c2.16-0.96,3.81-2.22,4.93-3.77V77.3c0,1.79-0.36,3.09-1.09,3.91c-0.73,0.82-1.78,1.23-3.14,1.23v1.34h12.69v-1.34h-0.63 c-1.08,0-1.94-0.46-2.57-1.38c-0.64-0.92-0.95-2.17-0.95-3.77V33.8c0-1.78,0.35-3.09,1.06-3.91c0.7-0.82,1.74-1.23,3.1-1.23v-1.34 h-12.69v1.34h0.7c1.08,0,1.94,0.46,2.57,1.38c0.63,0.92,0.95,2.17,0.95,3.77v13.82c-0.66,1.74-1.88,3.13-3.66,4.16 c-1.79,1.03-3.9,1.92-6.35,2.65c-2.44,0.73-5.07,1.36-7.86,1.9c-2.8,0.54-5.5,1.17-8.11,1.9c-2.61,0.73-4.99,1.62-7.16,2.68 c-2.16,1.06-3.81,2.45-4.94,4.19V33.8c0-1.78,0.36-3.09,1.1-3.91c0.73-0.82,1.77-1.23,3.14-1.23v-1.34h-12.69v1.34h0.64 c1.08,0,1.94,0.46,2.57,1.38c0.64,0.92,0.96,2.17,0.96,3.77v43.5c0,1.79-0.35,3.09-1.06,3.91c-0.7,0.82-1.74,1.23-3.1,1.23v1.34 h12.69V82.44z"></path> <path class="st0" d="M814.77,27.88l-0.07-0.49h-49.77l-0.07,0.49c-0.05,0-0.13,0.44-0.25,1.3c-0.12,0.87-0.25,1.85-0.39,2.93 c-0.14,1.08-0.27,2.09-0.39,3.03c-0.12,0.94-0.17,1.51-0.17,1.69H765l1.06-2.05c1.08-1.93,2.54-3.47,4.37-4.62 c1.83-1.15,3.69-1.73,5.57-1.73h11.63v48.93c0,1.79-0.37,3.08-1.09,3.88c-0.73,0.8-1.78,1.2-3.14,1.2v1.34h12.76v-1.34h-0.63 c-1.08,0-1.94-0.46-2.58-1.38c-0.63-0.92-0.95-2.15-0.95-3.7V28.44h11.63c1.88,0,3.74,0.58,5.57,1.73 c1.83,1.15,3.29,2.69,4.37,4.62l1.06,2.05h1.34c0-0.14-0.06-0.69-0.17-1.66c-0.12-0.96-0.25-1.99-0.39-3.06 c-0.14-1.08-0.27-2.06-0.39-2.93C814.89,28.31,814.81,27.88,814.77,27.88z"></path> <path class="st0" d="M834.75,32.81c0.82-1.22,1.92-2.19,3.28-2.89s2.91-1.2,4.65-1.48c1.74-0.28,3.5-0.42,5.29-0.42 c2.4,0,4.46,0.2,6.2,0.6c1.74,0.4,3.2,0.93,4.37,1.59c1.17,0.66,2.12,1.4,2.86,2.22c0.73,0.82,1.3,1.68,1.73,2.57 c0.37,0.7,0.72,1.47,1.02,2.29c0.3,0.82,0.65,1.56,1.02,2.22h1.41l-0.29-8.32l-0.35,0.63c0-0.1,0.12-0.33,0.35-0.7 c-1.03-0.56-2.24-1.1-3.63-1.62c-1.39-0.52-2.88-0.96-4.48-1.34c-1.6-0.37-3.25-0.67-4.97-0.88c-1.71-0.21-3.42-0.32-5.11-0.32 c-2.16,0-4.29,0.21-6.38,0.63c-2.09,0.43-3.97,1.11-5.64,2.05c-1.67,0.94-3.01,2.19-4.02,3.74c-1.01,1.55-1.52,3.46-1.52,5.71 c0,1.69,0.54,3.18,1.62,4.44c1.08,1.27,2.53,2.4,4.34,3.38c1.81,0.99,3.85,1.9,6.13,2.75c2.28,0.84,4.61,1.69,6.98,2.54 c2.37,0.85,4.7,1.76,6.98,2.75c2.28,0.98,4.32,2.12,6.13,3.42c1.81,1.29,3.25,2.78,4.33,4.48c1.08,1.69,1.62,3.69,1.62,5.99 c0,1.83-0.45,3.6-1.34,5.29c-0.89,1.69-2.11,3.21-3.67,4.55c-1.55,1.34-3.35,2.41-5.39,3.2c-2.04,0.8-4.19,1.2-6.45,1.2 c-1.69,0-3.34-0.06-4.94-0.18c-1.6-0.12-3.22-0.29-4.86-0.53c-2.4-0.51-4.6-1.52-6.59-2.99c-2-1.48-3.54-3.33-4.62-5.54 l-1.06-2.11h-1.41l0.28,8.25c1.17,0.66,2.58,1.25,4.23,1.76c1.64,0.52,3.48,0.95,5.5,1.3c2.02,0.35,4.17,0.62,6.45,0.81 c2.28,0.19,4.62,0.28,7.02,0.28c2.72,0,5.28-0.48,7.68-1.44c2.4-0.96,4.49-2.25,6.27-3.84c1.78-1.6,3.19-3.41,4.23-5.43 c1.03-2.02,1.55-4.09,1.55-6.2c0-2.68-0.54-4.99-1.62-6.95c-1.08-1.95-2.51-3.65-4.3-5.11c-1.79-1.46-3.82-2.72-6.1-3.77 c-2.28-1.06-4.62-2.01-7.02-2.86c-2.39-0.84-4.74-1.63-7.01-2.36c-2.28-0.73-4.31-1.52-6.1-2.36c-1.78-0.84-3.22-1.77-4.3-2.78 c-1.08-1.01-1.62-2.22-1.62-3.63C833.52,35.57,833.93,34.04,834.75,32.81z"></path> </g> <g> <path class="st0" d="M18.6,81.07c0.63,0.92,1.49,1.37,2.57,1.37h0.71v1.34h-9.73v-1.34c1.36,0,2.41-0.4,3.14-1.2 c0.73-0.8,1.09-2.09,1.09-3.88V33.8c0-1.6-0.33-2.86-0.99-3.77c-0.66-0.92-1.53-1.37-2.61-1.37h-0.63v-1.27h8.11l38.99,50.12V33.8 c0-1.6-0.32-2.86-0.95-3.77c-0.63-0.92-1.49-1.37-2.57-1.37h-0.63v-1.27h9.66v1.27c-1.36,0-2.4,0.41-3.1,1.23 c-0.71,0.82-1.06,2.13-1.06,3.91v50.76h-1.41l-1.9-2.54L17.65,31.19v46.17C17.65,78.92,17.97,80.15,18.6,81.07z"></path> <path class="st0" d="M129.81,55.37c0,3.85-0.6,7.52-1.8,11c-1.2,3.48-2.97,6.52-5.32,9.13c-2.35,2.61-5.28,4.68-8.78,6.2 c-3.5,1.53-7.55,2.29-12.16,2.29c-4.65,0-8.73-0.76-12.23-2.29c-3.5-1.53-6.43-3.59-8.78-6.2c-2.35-2.61-4.12-5.65-5.32-9.13 c-1.2-3.48-1.8-7.14-1.8-11s0.6-7.51,1.8-10.96c1.2-3.45,2.97-6.49,5.32-9.09c2.35-2.61,5.28-4.68,8.78-6.2 c3.5-1.53,7.58-2.29,12.23-2.29c4.61,0,8.66,0.77,12.16,2.29c3.5,1.53,6.43,3.6,8.78,6.2c2.35,2.61,4.12,5.64,5.32,9.09 C129.22,47.86,129.81,51.52,129.81,55.37z M101.76,82.94c3.85,0,7.23-0.74,10.12-2.22c2.89-1.48,5.31-3.48,7.26-5.99 c1.95-2.51,3.42-5.44,4.41-8.78c0.99-3.34,1.48-6.86,1.48-10.57s-0.49-7.23-1.48-10.54c-0.99-3.31-2.46-6.23-4.41-8.74 c-1.95-2.51-4.37-4.51-7.26-5.99c-2.89-1.48-6.26-2.22-10.12-2.22c-3.85,0-7.24,0.74-10.15,2.22c-2.91,1.48-5.36,3.48-7.33,5.99 c-1.97,2.52-3.45,5.43-4.44,8.74c-0.99,3.32-1.48,6.83-1.48,10.54s0.49,7.24,1.48,10.57c0.99,3.34,2.47,6.26,4.44,8.78 c1.97,2.51,4.42,4.51,7.33,5.99C94.52,82.2,97.9,82.94,101.76,82.94z"></path> <path class="st0" d="M189.17,83.01v0.85h-2.47c-0.85,0-1.61-0.07-2.29-0.21c-0.68-0.14-1.37-0.42-2.08-0.85s-1.48-1.03-2.33-1.83 c-0.85-0.8-1.87-1.87-3.07-3.21c-1.2-1.34-2.63-2.99-4.3-4.94c-1.67-1.95-3.68-4.29-6.03-7.01c-0.33,0.05-0.67,0.07-1.02,0.07 c-0.35,0-0.72,0-1.09,0h-13.75v11.49c0,1.51,0.33,2.73,0.99,3.67c0.66,0.94,1.53,1.41,2.61,1.41h0.71v1.34h-13.04v-1.34h0.63 c1.13,0,2.02-0.47,2.68-1.41c0.66-0.94,0.99-2.16,0.99-3.67V33.8c0-1.55-0.33-2.8-0.99-3.74c-0.66-0.94-1.55-1.41-2.68-1.41h-0.63 v-1.27h25.87c2.73,0,5.22,0.47,7.47,1.41c2.26,0.94,4.18,2.26,5.78,3.95c1.6,1.69,2.84,3.73,3.74,6.1 c0.89,2.37,1.34,4.99,1.34,7.86c0,2.35-0.35,4.52-1.06,6.52c-0.71,2-1.72,3.78-3.03,5.36c-1.32,1.58-2.89,2.92-4.72,4.02 c-1.83,1.11-3.9,1.94-6.2,2.5c3.57,4.28,6.43,7.61,8.56,10.01c2.14,2.4,3.81,4.18,5.01,5.36c1.2,1.18,2.08,1.89,2.64,2.15 c0.56,0.26,1.08,0.39,1.55,0.39H189.17z M164.5,64.82c2.54,0,4.85-0.44,6.94-1.3c2.09-0.87,3.89-2.1,5.39-3.7 c1.5-1.6,2.67-3.51,3.49-5.75c0.82-2.23,1.23-4.69,1.23-7.37c0-2.72-0.33-5.2-0.99-7.44c-0.66-2.23-1.59-4.15-2.78-5.75 c-1.2-1.6-2.64-2.84-4.34-3.74c-1.69-0.89-3.55-1.34-5.57-1.34h-17.13v36.38H164.5z"></path> <path class="st0" d="M248.35,29.18c0.12,0.87,0.25,1.85,0.39,2.93c0.14,1.08,0.27,2.1,0.39,3.07c0.12,0.96,0.18,1.52,0.18,1.66 h-1.34l-1.06-2.05c-1.08-1.93-2.54-3.46-4.37-4.62c-1.83-1.15-3.69-1.73-5.57-1.73h-11.63v48.93c0,1.55,0.32,2.79,0.95,3.7 c0.63,0.92,1.49,1.37,2.57,1.37h0.63v1.34h-12.76v-1.34c1.36,0,2.41-0.4,3.14-1.2c0.73-0.8,1.09-2.09,1.09-3.88V28.44h-11.63 c-1.88,0-3.74,0.58-5.57,1.73c-1.83,1.15-3.29,2.69-4.37,4.62l-1.06,2.05H197c0-0.19,0.06-0.75,0.18-1.69 c0.12-0.94,0.25-1.95,0.39-3.03c0.14-1.08,0.27-2.05,0.39-2.93c0.12-0.87,0.2-1.3,0.25-1.3l0.07-0.49h49.77l0.07,0.49 C248.16,27.88,248.24,28.31,248.35,29.18z"></path> <path class="st0" d="M273.77,83.78h-12.69v-1.34c1.36,0,2.4-0.41,3.1-1.23c0.71-0.82,1.06-2.13,1.06-3.91V33.8 c0-1.6-0.32-2.86-0.95-3.77c-0.63-0.92-1.49-1.37-2.57-1.37h-0.63v-1.34h12.69v1.34c-1.36,0-2.41,0.41-3.14,1.23 s-1.09,2.13-1.09,3.91v31.3c1.13-1.74,2.77-3.14,4.93-4.19c2.16-1.06,4.55-1.95,7.16-2.68c2.61-0.73,5.31-1.36,8.11-1.91 c2.8-0.54,5.42-1.17,7.86-1.9c2.44-0.73,4.56-1.61,6.35-2.64c1.79-1.03,3.01-2.42,3.67-4.16V33.8c0-1.6-0.32-2.86-0.95-3.77 c-0.64-0.92-1.49-1.37-2.57-1.37h-0.71v-1.34h12.69v1.34c-1.36,0-2.4,0.41-3.1,1.23c-0.71,0.82-1.06,2.13-1.06,3.91v43.5 c0,1.6,0.32,2.86,0.95,3.77c0.63,0.92,1.49,1.37,2.57,1.37h0.63v1.34h-12.69v-1.34c1.36,0,2.41-0.41,3.14-1.23 c0.73-0.82,1.09-2.13,1.09-3.91V49.94c-1.13,1.55-2.77,2.81-4.94,3.77c-2.16,0.96-4.55,1.78-7.15,2.43 c-2.61,0.66-5.31,1.27-8.11,1.83c-2.8,0.56-5.41,1.25-7.83,2.04c-2.42,0.8-4.54,1.79-6.35,2.96c-1.81,1.18-3.04,2.73-3.7,4.65 v9.66c0,1.6,0.32,2.86,0.95,3.77c0.63,0.92,1.49,1.37,2.57,1.37h0.71V83.78z"></path> <path class="st0" d="M370.77,81.11c-0.33,1.6-0.52,2.49-0.56,2.68H328.9v-1.34c1.36,0,2.41-0.4,3.14-1.2 c0.73-0.8,1.09-2.09,1.09-3.88V33.8c0-1.55-0.33-2.79-0.99-3.7c-0.66-0.92-1.53-1.37-2.61-1.37h-0.63v-1.34h40.82 c0,1.36,0.05,2.81,0.14,4.34c0.09,1.53,0.16,2.97,0.21,4.34h-1.13l-0.49-1.2c-0.94-1.97-2.42-3.54-4.44-4.69 c-2.02-1.15-4.23-1.73-6.63-1.73h-20.02V49.8h17.62c2.12,0,3.92-0.32,5.43-0.95c1.5-0.63,2.44-1.49,2.82-2.57l0.28-0.63h1.13 v10.01h-1.13l-0.28-0.7c-0.47-1.22-1.44-2.21-2.92-2.96c-1.48-0.75-3.26-1.13-5.32-1.13h-17.62v31.86h20.66 c2.4,0,4.69-0.57,6.87-1.73c2.18-1.15,3.91-2.71,5.18-4.69l0.85-1.13h1.06C371.5,77.53,371.1,79.51,370.77,81.11z"></path> <path class="st0" d="M433.16,83.01v0.85h-2.47c-0.85,0-1.61-0.07-2.29-0.21c-0.68-0.14-1.37-0.42-2.08-0.85s-1.48-1.03-2.33-1.83 c-0.85-0.8-1.87-1.87-3.07-3.21c-1.2-1.34-2.63-2.99-4.3-4.94c-1.67-1.95-3.68-4.29-6.03-7.01c-0.33,0.05-0.67,0.07-1.02,0.07 c-0.35,0-0.72,0-1.09,0h-13.75v11.49c0,1.51,0.33,2.73,0.99,3.67c0.66,0.94,1.53,1.41,2.61,1.41h0.71v1.34H386v-1.34h0.63 c1.13,0,2.02-0.47,2.68-1.41c0.66-0.94,0.99-2.16,0.99-3.67V33.8c0-1.55-0.33-2.8-0.99-3.74c-0.66-0.94-1.55-1.41-2.68-1.41H386 v-1.27h25.87c2.73,0,5.22,0.47,7.47,1.41c2.26,0.94,4.18,2.26,5.78,3.95c1.6,1.69,2.84,3.73,3.74,6.1 c0.89,2.37,1.34,4.99,1.34,7.86c0,2.35-0.35,4.52-1.06,6.52c-0.71,2-1.72,3.78-3.03,5.36c-1.32,1.58-2.89,2.92-4.72,4.02 c-1.83,1.11-3.9,1.94-6.2,2.5c3.57,4.28,6.43,7.61,8.56,10.01c2.14,2.4,3.81,4.18,5.01,5.36c1.2,1.18,2.08,1.89,2.64,2.15 c0.56,0.26,1.08,0.39,1.55,0.39H433.16z M408.49,64.82c2.54,0,4.85-0.44,6.94-1.3c2.09-0.87,3.89-2.1,5.39-3.7 c1.5-1.6,2.67-3.51,3.49-5.75c0.82-2.23,1.23-4.69,1.23-7.37c0-2.72-0.33-5.2-0.99-7.44c-0.66-2.23-1.59-4.15-2.78-5.75 c-1.2-1.6-2.64-2.84-4.34-3.74c-1.69-0.89-3.55-1.34-5.57-1.34h-17.13v36.38H408.49z"></path> <path class="st0" d="M453.64,81.07c0.64,0.92,1.49,1.37,2.58,1.37h0.7v1.34h-9.73v-1.34c1.36,0,2.41-0.4,3.14-1.2 c0.73-0.8,1.09-2.09,1.09-3.88V33.8c0-1.6-0.33-2.86-0.99-3.77c-0.66-0.92-1.53-1.37-2.61-1.37h-0.63v-1.27h8.11l38.98,50.12V33.8 c0-1.6-0.32-2.86-0.95-3.77c-0.63-0.92-1.49-1.37-2.57-1.37h-0.63v-1.27h9.66v1.27c-1.36,0-2.39,0.41-3.1,1.23 c-0.7,0.82-1.06,2.13-1.06,3.91v50.76h-1.41l-1.9-2.54l-39.62-50.83v46.17C452.69,78.92,453.01,80.15,453.64,81.07z"></path> <path class="st0" d="M556.47,29.92c-0.71,0.8-1.06,2.09-1.06,3.88v48.93h21.29c0.52,0,1.27-0.08,2.26-0.25 c0.98-0.16,2.04-0.54,3.17-1.13c1.13-0.59,2.25-1.43,3.35-2.54c1.1-1.1,2.03-2.6,2.78-4.48l0.71,0.14 c0.19,0.05,0.38,0.1,0.56,0.14c0.19,0.05,0.37,0.1,0.56,0.14c-0.33,1.41-0.61,2.72-0.85,3.95c-0.23,1.03-0.45,2.04-0.63,3.03 c-0.19,0.99-0.33,1.67-0.42,2.04h-41.31v-1.27c1.36,0,2.41-0.41,3.14-1.23c0.73-0.82,1.09-2.13,1.09-3.91V33.8 c0-1.55-0.32-2.79-0.95-3.7c-0.63-0.92-1.49-1.37-2.57-1.37h-0.71v-1.34h12.69v1.34C558.2,28.73,557.17,29.13,556.47,29.92z"></path> </g> <g> <path class="st0" d="M616.82,83.78h-12.69v-1.34c1.36,0,2.41-0.4,3.14-1.2c0.73-0.8,1.09-2.09,1.09-3.88V33.8 c0-1.55-0.32-2.79-0.95-3.7c-0.63-0.92-1.49-1.37-2.57-1.37h-0.7v-1.34h12.69v1.34c-1.36,0-2.39,0.4-3.1,1.2 c-0.7,0.8-1.06,2.09-1.06,3.88v43.57c0,1.55,0.32,2.79,0.95,3.7c0.63,0.92,1.49,1.37,2.57,1.37h0.63V83.78z"></path> <path class="st0" d="M658.83,84.14c-4.28,0-8.15-0.68-11.63-2.04c-3.48-1.36-6.46-3.3-8.96-5.82c-2.49-2.51-4.42-5.52-5.78-9.02 c-1.36-3.5-2.04-7.41-2.04-11.74c0-4.28,0.68-8.17,2.04-11.67c1.36-3.5,3.29-6.51,5.78-9.03c2.49-2.51,5.48-4.45,8.96-5.82 c3.48-1.36,7.35-2.04,11.63-2.04c1.97,0,3.97,0.12,5.99,0.35c2.02,0.23,3.99,0.57,5.92,1.02c1.93,0.45,3.75,0.99,5.46,1.62 c1.71,0.63,3.25,1.33,4.62,2.08l0.35,7.97h-1.41c-0.52-1.41-1.2-2.74-2.04-3.98c-0.85-1.25-1.83-2.37-2.96-3.38 c-1.13-1.01-2.37-1.86-3.74-2.54c-1.36-0.68-2.77-1.16-4.23-1.45c-2.63-0.42-5.29-0.63-7.97-0.63c-3.57,0-6.82,0.66-9.73,1.97 c-2.92,1.31-5.41,3.17-7.47,5.57s-3.67,5.29-4.79,8.67c-1.13,3.38-1.69,7.15-1.69,11.28s0.56,7.9,1.69,11.28 c1.13,3.38,2.72,6.29,4.79,8.71c2.07,2.42,4.56,4.29,7.47,5.6c2.91,1.31,6.16,1.97,9.73,1.97c3.2,0,6.44-0.31,9.73-0.92 c3.29-0.61,6.23-1.46,8.81-2.54V58.76c0-1.6-0.32-2.86-0.95-3.77c-0.63-0.92-1.49-1.38-2.57-1.38h-0.7v-1.34h12.27v1.34 c-1.36,0-2.4,0.41-3.1,1.23c-0.71,0.82-1.06,2.13-1.06,3.91v20.3c-1.31,0.75-2.84,1.44-4.58,2.08c-1.74,0.64-3.59,1.18-5.53,1.62 c-1.95,0.45-3.98,0.79-6.1,1.02C662.92,84.02,660.85,84.14,658.83,84.14z"></path> <path class="st0" d="M709.66,83.78h-12.69v-1.34c1.36,0,2.4-0.41,3.1-1.23c0.71-0.82,1.06-2.13,1.06-3.91V33.8 c0-1.6-0.32-2.86-0.95-3.77c-0.63-0.92-1.49-1.37-2.57-1.37h-0.63v-1.34h12.69v1.34c-1.36,0-2.41,0.41-3.14,1.23 c-0.73,0.82-1.09,2.13-1.09,3.91v31.3c1.13-1.74,2.77-3.14,4.93-4.19c2.16-1.06,4.55-1.95,7.16-2.68 c2.61-0.73,5.31-1.36,8.11-1.91c2.79-0.54,5.42-1.17,7.86-1.9c2.44-0.73,4.56-1.61,6.34-2.64c1.79-1.03,3.01-2.42,3.67-4.16V33.8 c0-1.6-0.32-2.86-0.95-3.77c-0.63-0.92-1.49-1.37-2.57-1.37h-0.7v-1.34h12.69v1.34c-1.36,0-2.4,0.41-3.1,1.23 c-0.71,0.82-1.06,2.13-1.06,3.91v43.5c0,1.6,0.32,2.86,0.95,3.77c0.63,0.92,1.49,1.37,2.57,1.37h0.63v1.34h-12.69v-1.34 c1.36,0,2.41-0.41,3.14-1.23c0.73-0.82,1.09-2.13,1.09-3.91V49.94c-1.13,1.55-2.77,2.81-4.94,3.77c-2.16,0.96-4.55,1.78-7.16,2.43 c-2.61,0.66-5.31,1.27-8.11,1.83c-2.79,0.56-5.4,1.25-7.82,2.04c-2.42,0.8-4.54,1.79-6.34,2.96c-1.81,1.18-3.04,2.73-3.7,4.65 v9.66c0,1.6,0.32,2.86,0.95,3.77c0.63,0.92,1.49,1.37,2.57,1.37h0.71V83.78z"></path> <path class="st0" d="M814.95,29.18c0.12,0.87,0.25,1.85,0.39,2.93c0.14,1.08,0.27,2.1,0.39,3.07c0.12,0.96,0.18,1.52,0.18,1.66 h-1.34l-1.06-2.05c-1.08-1.93-2.54-3.46-4.37-4.62c-1.83-1.15-3.69-1.73-5.57-1.73h-11.63v48.93c0,1.55,0.32,2.79,0.95,3.7 c0.64,0.92,1.49,1.37,2.58,1.37h0.63v1.34h-12.76v-1.34c1.36,0,2.41-0.4,3.14-1.2c0.73-0.8,1.09-2.09,1.09-3.88V28.44h-11.63 c-1.88,0-3.74,0.58-5.57,1.73c-1.83,1.15-3.29,2.69-4.37,4.62l-1.06,2.05h-1.34c0-0.19,0.06-0.75,0.18-1.69 c0.12-0.94,0.25-1.95,0.39-3.03c0.14-1.08,0.27-2.05,0.39-2.93c0.12-0.87,0.2-1.3,0.24-1.3l0.07-0.49h49.77l0.07,0.49 C814.75,27.88,814.83,28.31,814.95,29.18z"></path> <path class="st0" d="M833.46,37.4c0,1.41,0.54,2.62,1.62,3.63c1.08,1.01,2.51,1.94,4.3,2.78c1.78,0.85,3.82,1.63,6.1,2.36 c2.28,0.73,4.62,1.52,7.01,2.36c2.4,0.85,4.74,1.8,7.02,2.86c2.28,1.06,4.31,2.31,6.1,3.77s3.22,3.16,4.3,5.11 c1.08,1.95,1.62,4.26,1.62,6.94c0,2.12-0.52,4.18-1.55,6.2c-1.04,2.02-2.45,3.83-4.23,5.43c-1.79,1.6-3.88,2.88-6.27,3.84 c-2.4,0.96-4.96,1.45-7.68,1.45c-2.4,0-4.74-0.1-7.01-0.28c-2.28-0.19-4.43-0.46-6.45-0.81c-2.02-0.35-3.86-0.79-5.5-1.3 c-1.64-0.52-3.05-1.1-4.23-1.76l-0.28-8.25h1.41l1.06,2.11c1.08,2.21,2.62,4.05,4.62,5.53c2,1.48,4.19,2.48,6.59,3 c1.64,0.23,3.27,0.41,4.86,0.53c1.6,0.12,3.24,0.18,4.93,0.18c2.26,0,4.41-0.4,6.45-1.2s3.84-1.87,5.39-3.21 c1.55-1.34,2.77-2.85,3.67-4.55c0.89-1.69,1.34-3.45,1.34-5.29c0-2.3-0.54-4.3-1.62-5.99c-1.08-1.69-2.53-3.18-4.34-4.48 c-1.81-1.29-3.85-2.43-6.13-3.42c-2.28-0.99-4.61-1.91-6.98-2.75c-2.37-0.85-4.7-1.69-6.98-2.54c-2.28-0.85-4.32-1.76-6.13-2.75 c-1.81-0.99-3.26-2.11-4.34-3.38c-1.08-1.27-1.62-2.75-1.62-4.44c0-2.26,0.51-4.16,1.52-5.71c1.01-1.55,2.35-2.79,4.02-3.74 c1.67-0.94,3.55-1.62,5.64-2.04c2.09-0.42,4.22-0.63,6.38-0.63c1.69,0,3.4,0.11,5.11,0.32c1.72,0.21,3.37,0.51,4.97,0.88 c1.6,0.38,3.09,0.82,4.48,1.34c1.38,0.52,2.6,1.06,3.63,1.62c-0.23,0.38-0.35,0.61-0.35,0.71l0.35-0.63l0.28,8.32h-1.41 c-0.38-0.66-0.72-1.4-1.02-2.22c-0.31-0.82-0.65-1.59-1.02-2.29c-0.42-0.89-1-1.75-1.73-2.57c-0.73-0.82-1.68-1.56-2.86-2.22 c-1.18-0.66-2.63-1.19-4.37-1.59c-1.74-0.4-3.8-0.6-6.2-0.6c-1.79,0-3.55,0.14-5.29,0.42c-1.74,0.28-3.29,0.78-4.65,1.48 c-1.36,0.71-2.46,1.67-3.28,2.89C833.87,34.04,833.46,35.56,833.46,37.4z"></path> </g> <g> <path class="st0" d="M275.87,136.29h-2.95v-24.02h13.38c2.63,0,4.69,0.62,6.18,1.87c1.49,1.25,2.23,2.91,2.23,4.99 c0,1.37-0.34,2.57-1.01,3.6c-0.67,1.03-1.64,1.83-2.9,2.4c-1.26,0.57-2.73,0.86-4.43,0.86h-9.09l-1.82-1.1v-1.2h10.5 c1.76,0,3.17-0.39,4.22-1.18c1.05-0.79,1.58-1.88,1.58-3.28c0-1.37-0.52-2.44-1.56-3.21c-1.04-0.77-2.45-1.15-4.24-1.15h-10.09 V136.29z M290.8,136.29l-15.13-11.22l4.91,0.48l14.65,10.74H290.8z"></path> <path class="st0" d="M306.51,112.27h19.18v2.64h-16.23v7.69h16.16v2.64h-16.16v8.41h16.47v2.64h-19.42V112.27z"></path> <path class="st0" d="M342.01,133.2c1.86,0.66,3.85,1,5.95,1c1.49,0,2.79-0.19,3.91-0.57c1.12-0.38,1.99-0.93,2.61-1.65 c0.62-0.72,0.93-1.57,0.93-2.55c0-1.03-0.4-1.88-1.2-2.54c-0.8-0.67-1.99-1.11-3.57-1.34l-7.48-1.1c-2.08-0.3-3.66-0.92-4.74-1.87 c-1.08-0.95-1.61-2.27-1.61-3.96c0-2.15,0.91-3.83,2.73-5.03c1.82-1.2,4.26-1.8,7.33-1.8c4.09,0,7.21,0.82,9.33,2.47l0.51,3.57 c-1.26-1.12-2.68-1.98-4.27-2.57c-1.59-0.6-3.39-0.89-5.41-0.89c-2.15,0-3.9,0.34-5.25,1.01c-1.35,0.68-2.02,1.68-2.02,3 c0,0.98,0.3,1.73,0.91,2.25c0.61,0.52,1.6,0.88,2.97,1.08l7.58,1.1c2.33,0.35,4.11,1.06,5.32,2.14c1.21,1.09,1.82,2.5,1.82,4.24 c0,1.6-0.44,2.97-1.32,4.12c-0.88,1.14-2.11,2.01-3.69,2.59c-1.58,0.58-3.36,0.87-5.35,0.87c-2.1,0-4.09-0.27-5.95-0.8 c-1.86-0.54-3.41-1.24-4.65-2.11l-0.55-3.57C338.43,131.56,340.15,132.54,342.01,133.2z"></path> <path class="st0" d="M374.49,135.05c-1.9-1.14-3.35-2.67-4.36-4.58s-1.51-3.98-1.51-6.19s0.5-4.28,1.51-6.19 c1.01-1.91,2.46-3.44,4.36-4.58c1.9-1.14,4.14-1.72,6.73-1.72c2.61,0,4.87,0.57,6.78,1.72c1.91,1.14,3.36,2.67,4.36,4.58 c1,1.91,1.49,3.98,1.49,6.19s-0.5,4.28-1.49,6.19s-2.45,3.44-4.36,4.58c-1.91,1.14-4.17,1.71-6.78,1.71 C378.63,136.77,376.39,136.2,374.49,135.05z M386.4,132.77c1.46-0.9,2.58-2.1,3.35-3.59c0.77-1.48,1.15-3.12,1.15-4.91 s-0.38-3.42-1.15-4.91c-0.77-1.49-1.88-2.68-3.35-3.59c-1.46-0.9-3.19-1.36-5.18-1.36c-1.97,0-3.68,0.45-5.15,1.36 c-1.46,0.9-2.57,2.1-3.33,3.59c-0.76,1.49-1.13,3.12-1.13,4.91s0.38,3.42,1.13,4.91c0.75,1.49,1.86,2.68,3.33,3.59 c1.46,0.9,3.18,1.35,5.15,1.35C383.21,134.12,384.94,133.67,386.4,132.77z"></path> <path class="st0" d="M408.46,136.29h-2.95v-24.02h13.38c2.63,0,4.69,0.62,6.18,1.87c1.49,1.25,2.23,2.91,2.23,4.99 c0,1.37-0.34,2.57-1.01,3.6c-0.67,1.03-1.64,1.83-2.9,2.4c-1.26,0.57-2.73,0.86-4.43,0.86h-9.09l-1.82-1.1v-1.2h10.5 c1.76,0,3.17-0.39,4.22-1.18c1.05-0.79,1.58-1.88,1.58-3.28c0-1.37-0.52-2.44-1.56-3.21c-1.04-0.77-2.45-1.15-4.24-1.15h-10.09 V136.29z M423.39,136.29l-15.13-11.22l4.91,0.48l14.65,10.74H423.39z"></path> <path class="st0" d="M446.42,114.91h-9.33v-2.64h21.65v2.64h-9.37v21.38h-2.95V114.91z"></path> </g> <g> <path class="st0" d="M502.2,136.81c-0.27,0-0.52-0.07-0.74-0.22c-0.22-0.15-0.47-0.36-0.74-0.63l-1.88-1.96 c-0.81,0.86-1.81,1.55-2.99,2.07c-1.18,0.52-2.59,0.78-4.21,0.78c-1.28,0-2.44-0.18-3.47-0.54c-1.03-0.36-1.92-0.86-2.66-1.5 c-0.74-0.64-1.31-1.42-1.72-2.35c-0.4-0.92-0.61-1.95-0.61-3.09c0-1.72,0.46-3.16,1.37-4.31c0.91-1.14,2.07-1.98,3.47-2.5 c-0.59-0.69-1.04-1.37-1.33-2.03c-0.3-0.67-0.44-1.39-0.44-2.18c0-1.53,0.51-2.75,1.53-3.66c1.02-0.91,2.47-1.37,4.34-1.37 c1.31,0,2.3,0.19,2.97,0.55c0.68,0.37,1.02,0.84,1.02,1.4c0,0.3-0.08,0.56-0.24,0.79c-0.16,0.23-0.34,0.42-0.54,0.54 c-0.39-0.22-0.86-0.4-1.38-0.55c-0.53-0.15-1.08-0.22-1.64-0.22c-0.94,0-1.68,0.23-2.22,0.68c-0.54,0.46-0.81,1.08-0.81,1.87 c0,0.77,0.2,1.44,0.59,2.03c0.39,0.59,0.96,1.27,1.7,2.03l6.95,7.24c0.35-0.79,0.61-1.72,0.79-2.81c0.19-1.09,0.28-2.3,0.28-3.66 c0.22-0.1,0.45-0.18,0.68-0.24s0.46-0.09,0.68-0.09c0.99,0,1.48,0.55,1.48,1.66c0,1.26-0.16,2.53-0.48,3.81 c-0.32,1.28-0.78,2.44-1.37,3.47l3.25,3.36C503.68,136.27,503.13,136.81,502.2,136.81z M491.67,134.33c0.86,0,1.76-0.17,2.7-0.52 c0.94-0.34,1.81-0.92,2.62-1.73l-7.17-7.5c-0.47,0.15-0.92,0.35-1.37,0.61c-0.44,0.26-0.83,0.59-1.17,1 c-0.33,0.41-0.6,0.88-0.81,1.42s-0.31,1.14-0.31,1.81c0,1.48,0.49,2.67,1.46,3.57C488.59,133.88,489.94,134.33,491.67,134.33z"></path> </g> <g> <path class="st0" d="M533.75,133.2c1.86,0.66,3.85,1,5.95,1c1.48,0,2.79-0.19,3.91-0.57c1.12-0.38,1.99-0.93,2.61-1.65 c0.62-0.72,0.93-1.57,0.93-2.55c0-1.03-0.4-1.88-1.2-2.54c-0.8-0.67-1.99-1.11-3.57-1.34l-7.48-1.1c-2.08-0.3-3.66-0.92-4.74-1.87 c-1.08-0.95-1.61-2.27-1.61-3.96c0-2.15,0.91-3.83,2.73-5.03c1.82-1.2,4.26-1.8,7.33-1.8c4.09,0,7.21,0.82,9.33,2.47l0.52,3.57 c-1.26-1.12-2.68-1.98-4.27-2.57c-1.59-0.6-3.39-0.89-5.41-0.89c-2.15,0-3.9,0.34-5.25,1.01c-1.35,0.68-2.02,1.68-2.02,3 c0,0.98,0.3,1.73,0.91,2.25s1.6,0.88,2.97,1.08l7.58,1.1c2.33,0.35,4.11,1.06,5.32,2.14c1.21,1.09,1.82,2.5,1.82,4.24 c0,1.6-0.44,2.97-1.32,4.12c-0.88,1.14-2.11,2.01-3.69,2.59c-1.58,0.58-3.36,0.87-5.35,0.87c-2.11,0-4.09-0.27-5.95-0.8 c-1.86-0.54-3.41-1.24-4.65-2.11l-0.55-3.57C530.16,131.56,531.89,132.54,533.75,133.2z"></path> <path class="st0" d="M561.46,112.27h12.8c1.76,0,3.28,0.3,4.55,0.89c1.27,0.6,2.24,1.42,2.92,2.49c0.67,1.06,1.01,2.29,1.01,3.69 c0,1.39-0.34,2.62-1.03,3.69c-0.69,1.06-1.67,1.89-2.93,2.49c-1.27,0.6-2.77,0.89-4.51,0.89h-9.85v9.88h-2.95V112.27z M578.22,122.61c1.04-0.79,1.56-1.88,1.56-3.28c0-1.39-0.52-2.49-1.56-3.28c-1.04-0.79-2.43-1.19-4.17-1.19h-9.64v8.92h9.64 C575.79,123.79,577.18,123.4,578.22,122.61z"></path> <path class="st0" d="M600,112.27h3.5l11.12,24.02h-3.29l-2.51-5.59h-14.24l-2.5,5.59h-3.19L600,112.27z M607.61,127.98 l-5.94-13.28l-5.94,13.28H607.61z"></path> </g> </g> <text transform="matrix(1 0 0 1 -205.4793 -418.4537)"><tspan x="0" y="0" style="font-family:&#39;MyriadPro-Regular&#39;; font-size:12px;">php_value post_max_size 64M</tspan><tspan x="0" y="14.4" style="font-family:&#39;MyriadPro-Regular&#39;; font-size:12px;">php_value max_execution_time 120</tspan><tspan x="0" y="28.8" style="font-family:&#39;MyriadPro-Regular&#39;; font-size:12px;">php_value upload_max_filesize 64M</tspan><tspan x="0" y="43.2" style="font-family:&#39;MyriadPro-Regular&#39;; font-size:12px;">php_value memory_limit 512M</tspan></text> </svg>